<?xml version="1.0" encoding="UTF-8"?>
<svg version="1.1" xmlns="http://www.w3.org/2000/svg" width="1080" height="1080">
<path d="M0 0 C356.4 0 712.8 0 1080 0 C1080 356.4 1080 712.8 1080 1080 C723.6 1080 367.2 1080 0 1080 C0 723.6 0 367.2 0 0 Z " fill="#FEFEFE" transform="translate(0,0)"/>
<path d="M0 0 C32.7990407 -0.06796094 65.59805405 -0.12160517 98.39714902 -0.15319599 C102.27819386 -0.15694766 106.15923857 -0.16083067 110.0402832 -0.16479492 C111.19914712 -0.16597532 111.19914712 -0.16597532 112.38142242 -0.16717956 C124.85547149 -0.18019787 137.32947866 -0.20383178 149.80350295 -0.23145839 C162.62358277 -0.25961249 175.4436408 -0.2761973 188.26375026 -0.28226548 C196.16068575 -0.28636129 204.05750277 -0.2992497 211.95440175 -0.3237494 C218.03181759 -0.34163228 224.10913366 -0.34334061 230.18657875 -0.33932304 C232.66355616 -0.3401422 235.14053844 -0.34602614 237.61748886 -0.35761642 C274.2517421 -0.52049676 308.35329793 7.39501307 335.25 33.75 C341.68008365 40.26803312 347.05680763 47.30882034 352 55 C352.64582031 55.99644531 353.29164063 56.99289062 353.95703125 58.01953125 C366.01099355 77.63676401 371.44281213 99.59925337 371.375 122.4375 C371.3737915 123.18944641 371.37258301 123.94139282 371.37133789 124.71612549 C371.23505976 156.002758 360.84159761 182.8270103 341 207 C340.33097656 207.82371094 339.66195313 208.64742187 338.97265625 209.49609375 C324.92840621 226.06773439 305.25180729 237.67248704 285 245 C286.13695312 245.35191406 287.27390625 245.70382812 288.4453125 246.06640625 C313.58580742 254.02336742 333.78049835 266.97472009 350 288 C351.11181641 289.40572266 351.11181641 289.40572266 352.24609375 290.83984375 C358.19541485 298.5213762 363.21708639 306.56425953 368 315 C368.35529785 315.61875 368.7105957 316.2375 369.07666016 316.875 C386.01892697 346.6227387 396.27901877 379.69069541 406.98339844 412.03222656 C421.94746413 468.23416479 421.94746413 468.23416479 457.14453125 511.0703125 C465.90769955 515.46112104 475.78287638 514.96506734 485 512 C491.15087385 509.74995607 495.33739287 506.46222724 499 501 C499.33 500.01 499.66 499.02 500 498 C500.66 498 501.32 498 502 498 C506.54060071 511.62180213 504.42930809 525.99109647 499 539 C496.98648016 542.96008177 494.70298692 546.47969523 492 550 C491.45472656 550.72574219 490.90945313 551.45148437 490.34765625 552.19921875 C481.29809693 563.37808614 467.09118286 570.63926936 453 573 C434.99272853 574.43821752 418.09802206 569.67080221 404.13671875 557.98046875 C374.80101791 530.78997455 364.58377958 488.54427593 353.0625 451.6875 C332.73881565 386.2516098 332.73881565 386.2516098 299 327 C298.58508301 326.43104004 298.17016602 325.86208008 297.74267578 325.27587891 C292.24586702 317.80943317 286.38391352 310.72953941 280 304 C279.53787109 303.50532227 279.07574219 303.01064453 278.59960938 302.50097656 C265.87088269 288.94646748 251.53831488 278.45813265 235 270 C234.32888184 269.65485352 233.65776367 269.30970703 232.96630859 268.95410156 C216.84447953 260.76828609 199.95749999 254.76833751 182.18164062 251.41308594 C180.77445668 251.14664063 179.3692487 250.8694266 177.96679688 250.57910156 C166.01149256 248.11498695 153.99114959 247.52218916 141.83203125 246.9140625 C140.09816591 246.82434714 138.36431964 246.73426218 136.63049316 246.64379883 C132.42053663 246.42493836 128.21035361 246.21107813 124 246 C123.92025928 266.03692168 123.89209805 286.07328847 123.92484188 306.11034966 C123.93885235 315.41460097 123.93617329 324.71828145 123.89379883 334.02246094 C123.85689491 342.13486509 123.85171876 350.24657304 123.88417059 358.359007 C123.90024912 362.65225226 123.90075973 366.94419225 123.86323357 371.23733139 C123.82835927 375.28455857 123.83614523 379.32953611 123.87562943 383.37669945 C123.88272999 384.85605982 123.87469327 386.33558884 123.84977531 387.81475639 C123.72723472 395.62536568 124.0678198 400.79928667 129.41847229 406.75662231 C130.93296952 408.18464868 132.45857738 409.6010799 134 411 C147.35346213 427.53753851 152.20600767 450.22119038 150 471 C146.20876344 492.05873015 136.34921024 510.1426155 118.6640625 522.65234375 C107.17964132 529.95554363 92.73087609 535.38880275 79 535 C82.6193952 528.59645464 82.6193952 528.59645464 84.42578125 525.765625 C88.60489839 519.1567886 91.46137823 512.38595238 94 505 C94.24878906 504.32582031 94.49757813 503.65164063 94.75390625 502.95703125 C98.92868607 489.73202944 96.01457694 472.93100359 90.3125 460.75 C83.36206206 447.92499043 74.50777457 439.50117987 60.640625 434.7265625 C46.07218741 430.71808707 30.93396267 432.35473021 17.5 439 C2.20378445 447.77471527 -6.39794632 459.81848704 -12.30859375 476.3046875 C-18.07649302 498.78971854 -13.61199766 524.05317011 -1.89794922 543.86376953 C13.39045066 568.12170965 37.69492592 583.63519358 65.4140625 590.03515625 C77.06069179 592.54325329 88.30406158 593.17755426 100.1875 593.25 C101.93341431 593.2641394 101.93341431 593.2641394 103.71459961 593.27856445 C111.64976143 593.24883214 119.19484142 592.39141537 127 591 C128.92199219 590.70029297 128.92199219 590.70029297 130.8828125 590.39453125 C160.89518419 585.00676814 189.37668134 568.63347969 207.12719727 543.48608398 C214.41257312 532.62002644 220.23267828 521.14274841 224.25 508.6875 C224.47204102 508.00268555 224.69408203 507.31787109 224.92285156 506.61230469 C225.68714883 504.08932638 226.3534845 501.55601561 227 499 C227.16516113 498.35539825 227.33032227 497.71079651 227.50048828 497.04666138 C230.4312414 485.34722551 231.63989516 474.19990626 231.52148438 462.14819336 C231.50002856 459.56593723 231.5214421 456.98647028 231.546875 454.40429688 C231.61045033 416.30531235 215.98272934 378.3897809 189.80224609 350.80664062 C176.45866297 337.43052099 161.33651151 329.22354646 144 322 C144 309.79 144 297.58 144 285 C153.40440521 285.94044052 161.21265834 287.96720067 170 291 C170.66870117 291.22848633 171.33740234 291.45697266 172.02636719 291.69238281 C203.60612122 302.61017553 232.482405 321.40860431 253 348 C253.77601563 348.92554688 254.55203125 349.85109375 255.3515625 350.8046875 C283.96079119 385.77152256 292.64592331 430.80140888 288.25 474.875 C284.96866655 503.38401464 274.73091663 531.60706133 258 555 C257.40977051 555.83144531 257.40977051 555.83144531 256.80761719 556.6796875 C228.71909641 595.65784263 186.44038267 617.90598787 140 627 C139.319944 627.13713913 138.639888 627.27427826 137.93922424 627.41557312 C126.51390092 629.68755014 115.43662984 630.4741818 103.79638672 630.39111328 C101.13326507 630.37504985 98.47166963 630.39106084 95.80859375 630.41015625 C79.70167181 630.43089803 63.93717618 628.49343447 48.375 624.25 C47.41464844 623.99105957 46.45429688 623.73211914 45.46484375 623.46533203 C5.46596671 612.35674616 -31.26731023 588.57451561 -52.13867188 552.00488281 C-68.35017833 522.45717274 -74.03392964 487.09487535 -64.74609375 454.47265625 C-57.22864012 429.63076915 -41.41419201 406.67365037 -19 393 C-17.93136719 392.33355469 -16.86273438 391.66710937 -15.76171875 390.98046875 C-7.84030481 386.17095919 0.15660769 382.846399 9 380 C9.82242188 379.70351563 10.64484375 379.40703125 11.4921875 379.1015625 C22.08101798 375.29561275 32.50316714 374.68106729 43.6875 374.75 C45.58725586 374.73839844 45.58725586 374.73839844 47.52539062 374.7265625 C49.37487305 374.73042969 49.37487305 374.73042969 51.26171875 374.734375 C52.91627075 374.73775879 52.91627075 374.73775879 54.60424805 374.74121094 C57.34375351 374.94998769 59.58142082 375.33285269 62.2122345 376.01617432 C63.46219711 376.34083679 64.71215973 376.66549927 66 377 C65.98755579 375.24571969 65.98755579 375.24571969 65.97486019 373.45599937 C65.77993838 345.69376917 65.63153541 317.93160751 65.54041203 290.16883435 C65.52915568 286.75171519 65.51750678 283.33459747 65.50561523 279.91748047 C65.50207404 278.89705101 65.50207404 278.89705101 65.49846131 277.85600682 C65.45929943 266.84087462 65.388339 255.82616516 65.30562484 244.81128375 C65.22145969 233.50891003 65.17214463 222.20674749 65.15320355 210.90404475 C65.14145875 204.5552915 65.11381323 198.20749702 65.04842949 191.85905075 C64.98740012 185.88506802 64.96848362 179.91244006 64.98203087 173.9381752 C64.97955214 171.74431752 64.96161214 169.55041518 64.92715073 167.35682678 C64.88240411 164.36197871 64.89310849 161.3722537 64.91770935 158.37728882 C64.87838599 157.07280007 64.87838599 157.07280007 64.83826822 155.74195802 C64.8947846 153.19939628 65.04731748 151.36221364 66 149 C70.45115128 144.75816474 75.80594715 142.32970479 81.6875 140.6875 C82.74324219 140.38199219 83.79898438 140.07648438 84.88671875 139.76171875 C90.47459847 138.39454617 95.74336032 137.81907968 101.5 137.75 C103.40265625 137.71132813 103.40265625 137.71132813 105.34375 137.671875 C111.64505009 138.11592635 117.82329371 139.67642008 124 141 C124 164.1 124 187.2 124 211 C143.00694764 210.90899571 143.00694764 210.90899571 162.01367188 210.79101562 C169.77529035 210.73686281 177.53683925 210.6857464 185.29858398 210.65356445 C191.56218461 210.62739404 197.82554917 210.5868957 204.08900261 210.53681374 C206.46853619 210.52023748 208.84811052 210.50866608 211.22769356 210.50238609 C234.33279958 210.4876382 234.33279958 210.4876382 256.25 203.75 C256.91273926 203.44626465 257.57547852 203.1425293 258.25830078 202.82958984 C268.45655219 198.03811674 276.96801164 191.8978984 285 184 C286.04994141 182.96939453 286.04994141 182.96939453 287.12109375 181.91796875 C302.39602399 165.8688705 309.56189253 142.93574111 309.35131836 121.10766602 C308.67037648 97.47400038 298.47371591 75.75141521 281.52734375 59.39501953 C272.39199891 51.051132 261.75538448 44.87025741 250 41 C248.99500458 40.66771393 247.99000916 40.33542786 246.95455933 39.99307251 C234.16363968 36.29099967 221.61001383 36.39530271 208.375 36.390625 C205.93162963 36.37561665 203.4882693 36.35888401 201.04492188 36.34051514 C194.66645804 36.2971278 188.28813099 36.27690631 181.9095459 36.26177979 C174.22825355 36.23863542 166.54710989 36.18623929 158.86593628 36.13883972 C147.24391907 36.07034975 135.62232721 36.03863806 124 36 C124 54.15 124 72.3 124 91 C152.71 91 181.42 91 211 91 C211 114.43 211 137.86 211 162 C190 162 190 162 185.3125 157.625 C184.19375129 155.75866392 183.08982943 153.88336954 182 152 C166.82848208 134.11443594 142.03064616 122.41141498 118.84741211 120.21166992 C90.33548565 118.09216034 66.03195014 122.3463755 43.8125 141.25 C29.42232339 154.74079057 18.92605171 174.27359012 17.82299805 194.19702148 C17.08937815 215.4880954 17.08937815 215.4880954 22 236 C22.24669434 236.64533691 22.49338867 237.29067383 22.74755859 237.95556641 C26.45122269 247.56599496 30.95130148 258.97063817 39.01806641 265.67797852 C42.84954412 269.11612513 45.11381299 272.01404837 45.64428711 277.18969727 C45.88511279 282.15461288 45.69948655 287.09933115 45.5 292.0625 C45.45981384 293.80395443 45.4233221 295.54549824 45.390625 297.28710938 C45.30304533 301.52697 45.16534149 305.76248851 45 310 C22.03453904 307.34623952 0.54770611 291.48607761 -13.62890625 273.78515625 C-22.88880861 261.70382263 -29.3406711 247.76106103 -33 233 C-33.44666016 231.27716797 -33.44666016 231.27716797 -33.90234375 229.51953125 C-40.82088623 198.75274097 -34.64356502 165.62532606 -18 139 C-2.05467673 115.0315339 21.20319752 99.58866224 49 93 C54.37836095 92.01488497 59.55553147 91.8888884 65 92 C65.04923205 74.02504309 65.04923205 74.02504309 60 57 C59.62746094 56.20980469 59.25492188 55.41960937 58.87109375 54.60546875 C51.63985863 40.59644229 40.03884663 30.0944093 25 25 C16.7203632 22.63410184 8.54958415 21.06869802 0 20 C0 13.4 0 6.8 0 0 Z " fill="#010101" transform="translate(332,225)"/>
<path d="M0 0 C8.58 0 17.16 0 26 0 C26 1.98 26 3.96 26 6 C23.36 6.33 20.72 6.66 18 7 C18.99 7.495 18.99 7.495 20 8 C20 8.99 20 9.98 20 11 C21.65 11 23.3 11 25 11 C25 11.33 25 11.66 25 12 C-8.33 12 -41.66 12 -76 12 C-76 30.15 -76 48.3 -76 67 C-47.29 67 -18.58 67 11 67 C11 90.43 11 113.86 11 138 C10.67 138 10.34 138 10 138 C10 114.9 10 91.8 10 68 C-18.71 68 -47.42 68 -77 68 C-77 49.19 -77 30.38 -77 11 C-51.59 11 -26.18 11 0 11 C0.66 9.68 1.32 8.36 2 7 C1.01 6.505 1.01 6.505 0 6 C0 4.02 0 2.04 0 0 Z " fill="#454545" transform="translate(532,249)"/>
<path d="M0 0 C0 4.62 0 9.24 0 14 C2.7920301 13.8595017 5.58349796 13.71284617 8.375 13.5625 C9.1690625 13.52318359 9.963125 13.48386719 10.78125 13.44335938 C15.02601221 13.31106596 15.02601221 13.31106596 19 12 C19 86.91 19 161.82 19 239 C18.01 238.67 17.02 238.34 16 238 C16.66 238 17.32 238 18 238 C18 164.74 18 91.48 18 16 C12.06 16 6.12 16 0 16 C0 33.49 0 50.98 0 69 C-0.66 69 -1.32 69 -2 69 C-2.33 51.84 -2.66 34.68 -3 17 C-6.63 17 -10.26 17 -14 17 C-12.8995939 12.5983756 -11.6630446 11.19676144 -8.625 7.9375 C-7.83351563 7.08027344 -7.04203125 6.22304688 -6.2265625 5.33984375 C-1.14524207 0 -1.14524207 0 0 0 Z " fill="#B6B6B6" transform="translate(379,363)"/>
<path d="M0 0 C1.98 0 3.96 0 6 0 C6.14584726 3.87460078 6.23425444 7.74849117 6.3125 11.625 C6.35439453 12.71941406 6.39628906 13.81382812 6.43945312 14.94140625 C6.57771341 24.06658487 6.57771341 24.06658487 3.84375 27.75 C0.58666364 30.32703536 -0.73104449 30.67004498 -4.8125 30.375 C-5.78832031 30.32085938 -6.76414062 30.26671875 -7.76953125 30.2109375 C-8.50558594 30.14132812 -9.24164063 30.07171875 -10 30 C-10 29.34 -10 28.68 -10 28 C-10.66 28 -11.32 28 -12 28 C-12 19.42 -12 10.84 -12 2 C-8.78548731 0.39274365 -5.56387464 0.94251815 -2 1 C-2 1.66 -2 2.32 -2 3 C-1.34 3 -0.68 3 0 3 C0 2.01 0 1.02 0 0 Z " fill="#1A1A1A" transform="translate(410,529)"/>
<path d="M0 0 C1.32 0.33 2.64 0.66 4 1 C3.67 15.19 3.34 29.38 3 44 C18.84 44.33 34.68 44.66 51 45 C51.33 44.01 51.66 43.02 52 42 C52 43.65 52 45.3 52 47 C49.58208596 48.20895702 48.15503275 48.08661844 45.45849609 48.02172852 C44.50450928 48.00130493 43.55052246 47.98088135 42.56762695 47.95983887 C41.56304443 47.9331311 40.55846191 47.90642334 39.5234375 47.87890625 C38.60151611 47.85824097 37.67959473 47.83757568 36.72973633 47.81628418 C33.2780228 47.73737897 29.82652182 47.64938747 26.375 47.5625 C18.66125 47.376875 10.9475 47.19125 3 47 C3 64.16 3 81.32 3 99 C2.34 99 1.68 99 1 99 C1 81.84 1 64.68 1 47 C-16.49 47 -33.98 47 -52 47 C-52 46.34 -52 45.68 -52 45 C-34.84 44.67 -17.68 44.34 0 44 C0 29.48 0 14.96 0 0 Z " fill="#ECECEC" transform="translate(376,657)"/>
<path d="M0 0 C3.13671875 -0.171875 3.13671875 -0.171875 6.6875 0.25 C7.86699219 0.37890625 9.04648437 0.5078125 10.26171875 0.640625 C11.61716797 0.81851563 11.61716797 0.81851563 13 1 C13.05428973 3.22889496 13.09292338 5.45817471 13.125 7.6875 C13.14820313 8.92886719 13.17140625 10.17023437 13.1953125 11.44921875 C13.00749678 14.86370861 12.62390266 17.01567557 11 20 C6.76189465 22.82540356 2.97584134 22.77772321 -2 22 C-5.35124453 19.60625391 -6.67243114 18.13389222 -7.8125 14.1875 C-7.874375 13.465625 -7.93625 12.74375 -8 12 C-10.31 14.31 -12.62 16.62 -15 19 C-15.66 18.67 -16.32 18.34 -17 18 C-16.59160889 17.5968457 -16.18321777 17.19369141 -15.76245117 16.77832031 C-13.90147279 14.93821617 -12.04446276 13.09415612 -10.1875 11.25 C-9.54490234 10.61578125 -8.90230469 9.9815625 -8.24023438 9.328125 C-7.61826172 8.709375 -6.99628906 8.090625 -6.35546875 7.453125 C-5.78465576 6.88754883 -5.21384277 6.32197266 -4.62573242 5.73925781 C-2.92016209 4.00147959 -2.92016209 4.00147959 -1.48632812 1.79492188 C-0.99583984 1.20259766 -0.50535156 0.61027344 0 0 Z " fill="#1C1C1C" transform="translate(538,770)"/>
<path d="M0 0 C0.66 0 1.32 0 2 0 C2 17.49 2 34.98 2 53 C19.16 53 36.32 53 54 53 C54 53.66 54 54.32 54 55 C36.84 55 19.68 55 2 55 C2 63.58 2 72.16 2 81 C0.03970838 78.05956256 -0.98603514 75.55358683 -2.1640625 72.23828125 C-2.56367187 71.12001953 -2.96328125 70.00175781 -3.375 68.84960938 C-3.7875 67.68236328 -4.2 66.51511719 -4.625 65.3125 C-5.04523437 64.13365234 -5.46546875 62.95480469 -5.8984375 61.74023438 C-6.9359575 58.82810438 -7.96965251 55.91467383 -9 53 C-7 52 -7 52 0 53 C0 35.51 0 18.02 0 0 Z " fill="#242424" transform="translate(702,649)"/>
<path d="M0 0 C2.9375 1.1875 2.9375 1.1875 5 3 C5.8125 5.6875 5.8125 5.6875 6 8 C3.36 8 0.72 8 -2 8 C-2 7.34 -2 6.68 -2 6 C-5.11785113 6.64644661 -5.11785113 6.64644661 -6 9 C-5.319375 9.0825 -4.63875 9.165 -3.9375 9.25 C-0.1253093 10.22332528 2.64070329 11.95807455 6 14 C6.41668469 18.25018379 6.44022082 20.35342568 4 23.9375 C0.64163723 26.2463744 -1.08966036 26.68889298 -5.06640625 26.42578125 C-8.18118856 25.73989989 -9.87562521 24.31749977 -12 22 C-12.8125 19.75 -12.8125 19.75 -13 18 C-8.12335991 17.65166856 -5.22949995 18.58314288 -1 21 C-1 19.68 -1 18.36 -1 17 C-2.5778125 16.6596875 -2.5778125 16.6596875 -4.1875 16.3125 C-8.20446006 15.14496892 -10.45600407 13.39199457 -13 10 C-13.625 6.9375 -13.625 6.9375 -13 4 C-9.28649649 -0.40978541 -5.42568801 -0.89880084 0 0 Z " fill="#191919" transform="translate(678,524)"/>
<path d="M0 0 C0.99 0 1.98 0 3 0 C3 17.49 3 34.98 3 53 C20.16 53 37.32 53 55 53 C55 53.66 55 54.32 55 55 C37.84 55 20.68 55 3 55 C3 72.16 3 89.32 3 107 C2.01 107.495 2.01 107.495 1 108 C0.67 94.8 0.34 81.6 0 68 C-1.32 67.34 -2.64 66.68 -4 66 C-3.731875 64.845 -3.46375 63.69 -3.1875 62.5 C-2.7889386 60.66725781 -2.3935313 58.83382885 -2 57 C-1.74806885 55.87150635 -1.4961377 54.7430127 -1.23657227 53.58032227 C0.71845595 44.17253682 1.41768676 35.24966215 1.28125 25.65112305 C1.24957256 23.40722203 1.24020447 21.16402651 1.234375 18.91992188 C1.19407271 12.52017339 1.01758284 6.32216676 0 0 Z " fill="#ECECEC" transform="translate(701,324)"/>
<path d="M0 0 C2.625 1.875 2.625 1.875 4 4 C4 4.66 4 5.32 4 6 C4.99 6.33 5.98 6.66 7 7 C3.6230943 10.77317525 -0.17484747 13.10549367 -4.5 15.625 C-5.16386719 16.01945313 -5.82773437 16.41390625 -6.51171875 16.8203125 C-15.41395235 22.07991559 -15.41395235 22.07991559 -18.75 21.625 C-19.4925 21.41875 -20.235 21.2125 -21 21 C-21 19.02 -21 17.04 -21 15 C-14.25 14.875 -14.25 14.875 -12 16 C-12.33 14.68 -12.66 13.36 -13 12 C-13.66 12 -14.32 12 -15 12 C-15.6 4.8 -15.6 4.8 -13.125 1.5 C-8.72132541 -0.6137638 -4.80139712 -0.82587269 0 0 Z " fill="#1D1D1D" transform="translate(546,810)"/>
<path d="M0 0 C2.91927604 1.3961755 4.72202996 2.72202996 7 5 C7.1953125 7.3828125 7.1953125 7.3828125 7.125 10.125 C7.10695313 11.03507813 7.08890625 11.94515625 7.0703125 12.8828125 C7.04710937 13.58148438 7.02390625 14.28015625 7 15 C6.34 15 5.68 15 5 15 C4.814375 15.639375 4.62875 16.27875 4.4375 16.9375 C3 19 3 19 -0.625 19.75 C-2.295625 19.87375 -2.295625 19.87375 -4 20 C-4 15.38 -4 10.76 -4 6 C-4.99 6.66 -5.98 7.32 -7 8 C-6.67 11.63 -6.34 15.26 -6 19 C-7.32 19 -8.64 19 -10 19 C-13.21382548 15.44183607 -13.59130632 11.77885358 -13.40625 7.16015625 C-13 5 -13 5 -11 1.9375 C-7.15723192 -0.54428772 -4.45415639 -0.84755203 0 0 Z " fill="#1A1A1A" transform="translate(545,226)"/>
<path d="M0 0 C3.28816124 3.87321695 5.79349086 7.89533265 8.25 12.3125 C8.79527344 13.28026367 8.79527344 13.28026367 9.3515625 14.26757812 C10.23836205 15.84281416 11.11974563 17.42109714 12 19 C9.53773546 21.46226454 8.4452868 21.69375228 5 22 C0.7854667 21.12802759 -2.32426067 20.4664802 -5 17 C-5.83515649 12.20458531 -5.38820988 7.27363874 -3 3 C-1.375 1.1875 -1.375 1.1875 0 0 Z " fill="#1E1E1E" transform="translate(692,528)"/>
<path d="M0 0 C0 6.93 0 13.86 0 21 C-3.3 21 -6.6 21 -10 21 C-10 19.02 -10 17.04 -10 15 C-9.34 15 -8.68 15 -8 15 C-8.66 14.01 -9.32 13.02 -10 12 C-10.56852792 6.88324873 -10.56852792 6.88324873 -10 4 C-6.5646253 0.07385748 -5.37405888 0 0 0 Z " fill="#1A1A1A" transform="translate(542,336)"/>
<path d="M0 0 C1.98 0 3.96 0 6 0 C6.66 1.98 7.32 3.96 8 6 C11.63 6.33 15.26 6.66 19 7 C19 8.98 19 10.96 19 13 C12.4 13 5.8 13 -1 13 C-1 6 -1 6 0 5 C0.04063832 3.33382885 0.042721 1.66611905 0 0 Z " fill="#1A1A1A" transform="translate(532,794)"/>
<path d="M0 0 C0.86625 0.556875 0.86625 0.556875 1.75 1.125 C1.75 1.785 1.75 2.445 1.75 3.125 C2.3275 3.351875 2.905 3.57875 3.5 3.8125 C6.31427613 5.45416107 7.77737733 7.56059053 9.75 10.125 C10.41 10.455 11.07 10.785 11.75 11.125 C11.75 11.785 11.75 12.445 11.75 13.125 C12.41 13.125 13.07 13.125 13.75 13.125 C15.08203125 14.48046875 15.08203125 14.48046875 16.5625 16.3125 C19.96011892 20.40621646 23.29821919 24.15714613 27.75 27.125 C27.75 27.785 27.75 28.445 27.75 29.125 C28.41 29.125 29.07 29.125 29.75 29.125 C32.4375 31.9375 32.4375 31.9375 34.75 35.125 C34.42 36.115 34.09 37.105 33.75 38.125 C30.08641497 35.13431834 26.71470761 32.20608353 23.66796875 28.5859375 C19.05151351 23.2456821 14.10074514 18.25362047 9.125 13.25 C8.18747115 12.29169489 7.24997099 11.33336171 6.3125 10.375 C5.41273438 9.47007812 4.51296875 8.56515625 3.5859375 7.6328125 C2.77688965 6.81441895 1.9678418 5.99602539 1.13427734 5.15283203 C-1.26912054 3.10873794 -3.27018894 2.09885072 -6.25 1.125 C-2.80384615 -1.09038462 -2.80384615 -1.09038462 0 0 Z " fill="#161616" transform="translate(582.25,432.875)"/>
<path d="M0 0 C0.99 1.32 1.98 2.64 3 4 C1.33333333 5.66666667 -0.33333333 7.33333333 -2 9 C-2.721875 9.763125 -3.44375 10.52625 -4.1875 11.3125 C-6 13 -6 13 -8 13 C-8 13.66 -8 14.32 -8 15 C-9.5390625 16.48046875 -9.5390625 16.48046875 -11.625 18.1875 C-14.33466777 20.4835869 -16.75296716 22.75017804 -19 25.5 C-21.74624426 28.84816082 -24.83484879 31.56962849 -28.16796875 34.32421875 C-30.09200015 35.97345176 -30.09200015 35.97345176 -31.61328125 38.20703125 C-32.07089844 38.79871094 -32.52851562 39.39039063 -33 40 C-33.66 40 -34.32 40 -35 40 C-35.33 40.66 -35.66 41.32 -36 42 C-36.33 40.68 -36.66 39.36 -37 38 C-36.3654187 37.47043701 -36.3654187 37.47043701 -35.71801758 36.93017578 C-29.32518463 31.47330323 -23.39182703 25.57795911 -17.45288086 19.63818359 C-15.67905336 17.86656387 -13.89734142 16.10313003 -12.11523438 14.33984375 C-10.97607406 13.20361449 -9.83738518 12.06691233 -8.69921875 10.9296875 C-7.9070118 10.14825882 -7.9070118 10.14825882 -7.09880066 9.3510437 C-4.21233436 6.44661837 -1.93914535 3.6100802 0 0 Z " fill="#F1F1F1" transform="translate(646,576)"/>
<path d="M0 0 C2.18359375 0.3359375 2.18359375 0.3359375 4 1 C3.34 1 2.68 1 2 1 C2 1.66 2 2.32 2 3 C0.65429688 4.32446289 0.65429688 4.32446289 -1.28125 5.91015625 C-6.99910626 10.77209884 -12.22059763 16.11246679 -17.5 21.4375 C-18.52320139 22.4657298 -19.54663733 23.49372626 -20.5703125 24.52148438 C-23.04957999 27.01164338 -25.52567538 29.50492833 -28 32 C-27.34 32.66 -26.68 33.32 -26 34 C-30.62 34 -35.24 34 -40 34 C-40 33.67 -40 33.34 -40 33 C-37.36 33 -34.72 33 -32 33 C-32 32.34 -32 31.68 -32 31 C-30.35648543 29.63823078 -28.68477344 28.31037934 -27 27 C-25.3193167 25.34746885 -23.65451057 23.67873474 -22 22 C-11 11 -11 11 -8.34765625 8.3671875 C-6.98446184 6.99265203 -5.63825407 5.59995156 -4.33984375 4.1640625 C-2.9375 2.625 -2.9375 2.625 0 0 Z " fill="#171717" transform="translate(496,437)"/>
<path d="M0 0 C0.495 0.99 0.495 0.99 1 2 C0.0625 4.125 0.0625 4.125 -1 6 C-1 5.34 -1 4.68 -1 4 C-17.5 4 -34 4 -51 4 C-51 3.34 -51 2.68 -51 2 C-50.1300943 1.9845388 -50.1300943 1.9845388 -49.24261475 1.96876526 C-43.20801737 1.86060631 -37.17356647 1.74601586 -31.13916016 1.62768555 C-28.88691268 1.58436686 -26.63463301 1.54268958 -24.38232422 1.50268555 C-21.14540911 1.44490897 -17.90865558 1.38123548 -14.671875 1.31640625 C-13.16074127 1.29133751 -13.16074127 1.29133751 -11.61907959 1.26576233 C-10.67840637 1.24581711 -9.73773315 1.22587189 -8.76855469 1.20532227 C-7.94248718 1.18977798 -7.11641968 1.1742337 -6.26531982 1.15821838 C-4.06410512 1.00447734 -2.11720207 0.60602394 0 0 Z " fill="#262626" transform="translate(700,375)"/>
<path d="M0 0 C4.95 0.99 4.95 0.99 10 2 C9.34 3.32 8.68 4.64 8 6 C8.99 6.33 9.98 6.66 11 7 C12.36639342 8.6396721 13.6949419 10.31110128 15 12 C17.71490898 14.86166082 20.53960555 17.47446212 23.5625 20 C26.42842191 22.42789891 28.84484188 24.89657231 31 28 C31 28.66 31 29.32 31 30 C27.41196043 28.48082292 25.13449933 26.36615504 22.41015625 23.60546875 C21.54326172 22.73212891 20.67636719 21.85878906 19.78320312 20.95898438 C18.88537109 20.04439453 17.98753906 19.12980469 17.0625 18.1875 C16.16853516 17.28451172 15.27457031 16.38152344 14.35351562 15.45117188 C12.68006977 13.76033312 11.00869095 12.06744422 9.34008789 10.37182617 C7.68564923 8.6949486 6.01375097 7.03521273 4.32983398 5.38793945 C2 3 2 3 0 0 Z " fill="#161616" transform="translate(617,471)"/>
<path d="M0 0 C0.66 1.32 1.32 2.64 2 4 C1.443125 4.226875 0.88625 4.45375 0.3125 4.6875 C-2.65193773 6.37001871 -4.61972997 8.56006535 -7 11 C-7.81299561 11.82346924 -8.62599121 12.64693848 -9.46362305 13.49536133 C-10.30449463 14.3489624 -11.14536621 15.20256348 -12.01171875 16.08203125 C-13.420678 17.50477487 -14.82965198 18.92750427 -16.23950195 20.34936523 C-17.21196884 21.33199785 -18.18264932 22.31640133 -19.15161133 23.30249023 C-20.55862126 24.7336325 -21.97256198 26.15795058 -23.38671875 27.58203125 C-24.22420654 28.42999268 -25.06169434 29.2779541 -25.92456055 30.15161133 C-28 32 -28 32 -30 32 C-28.71977125 29.19030533 -27.39285871 27.1460762 -25.20263672 24.97558594 C-24.64220673 24.41530701 -24.08177673 23.85502808 -23.50436401 23.277771 C-22.90222076 22.68595032 -22.30007751 22.09412964 -21.6796875 21.484375 C-21.06102814 20.86854553 -20.44236877 20.25271606 -19.80496216 19.6182251 C-17.83296186 17.65739664 -15.85411263 15.70364699 -13.875 13.75 C-12.53469836 12.41973201 -11.19484917 11.089008 -9.85546875 9.7578125 C-6.57553411 6.4998985 -3.28944058 3.24831467 0 0 Z " fill="#181818" transform="translate(609,615)"/>
<path d="M0 0 C0 0.66 0 1.32 0 2 C-14.85 2 -29.7 2 -45 2 C-45 1.34 -45 0.68 -45 0 C-39.55586012 -0.16819852 -34.11156683 -0.32869423 -28.66699219 -0.48217773 C-26.81634471 -0.53541864 -24.96575564 -0.59073291 -23.11523438 -0.64819336 C-20.44934681 -0.73060655 -17.78333551 -0.80546525 -15.1171875 -0.87890625 C-14.29507782 -0.90594131 -13.47296814 -0.93297638 -12.62594604 -0.96083069 C-8.2751944 -1.07287432 -4.28843113 -0.89568498 0 0 Z " fill="#ECECEC" transform="translate(694,702)"/>
<path d="M0 0 C1.68178661 2.52267991 2.90106742 4.81091823 4.125 7.5625 C4.47820313 8.34753906 4.83140625 9.13257813 5.1953125 9.94140625 C6 12 6 12 6 14 C4.68 14.33 3.36 14.66 2 15 C2.08378906 15.59167969 2.16757812 16.18335938 2.25390625 16.79296875 C2.80889424 21.09939457 3.23226652 24.75552644 2 29 C1.34 29 0.68 29 0 29 C-0.19656362 24.72953289 -0.38070249 20.45861919 -0.5625 16.1875 C-0.61857422 14.97255859 -0.67464844 13.75761719 -0.73242188 12.50585938 C-0.78076172 11.34248047 -0.82910156 10.17910156 -0.87890625 8.98046875 C-0.9260376 7.90692139 -0.97316895 6.83337402 -1.02172852 5.72729492 C-1 3 -1 3 0 0 Z " fill="#EAEAEA" transform="translate(702,727)"/>
<path d="M0 0 C13.2 0 26.4 0 40 0 C40 0.99 40 1.98 40 3 C20.2 2.505 20.2 2.505 0 2 C0 1.34 0 0.68 0 0 Z " fill="#252525" transform="translate(324,377)"/>
<path d="M0 0 C2.31 0 4.62 0 7 0 C7 5.61 7 11.22 7 17 C6.34 17 5.68 17 5 17 C4.15838146 14.91999989 3.32699237 12.83585854 2.5 10.75 C2.0359375 9.58984375 1.571875 8.4296875 1.09375 7.234375 C0 4 0 4 0 0 Z " fill="#080808" transform="translate(695,704)"/>
<path d="M0 0 C0.99 0 1.98 0 3 0 C3 17.16 3 34.32 3 52 C2.01 52.495 2.01 52.495 1 53 C0.33431045 49.89344879 -0.07263378 47.42621747 0.46435547 44.27514648 C1.07038496 40.56963798 1.14377738 36.96449137 1.1328125 33.22265625 C1.13376923 32.49308212 1.13472595 31.763508 1.13571167 31.01182556 C1.13638889 29.47638868 1.1345667 27.94094887 1.13037109 26.40551758 C1.1250241 24.07301303 1.13032767 21.74070169 1.13671875 19.40820312 C1.13605774 17.90885375 1.13477609 16.40950449 1.1328125 14.91015625 C1.13483673 14.22139908 1.13686096 13.53264191 1.13894653 12.82301331 C1.11804473 8.44121383 0.70525233 4.3110037 0 0 Z " fill="#CCCCCC" transform="translate(701,324)"/>
<path d="M0 0 C2 3 2 3 1.625 5.6875 C1.41875 6.450625 1.2125 7.21375 1 8 C-1.31 8.33 -3.62 8.66 -6 9 C-8 6 -8 6 -7.75 3.375 C-7.5025 2.59125 -7.255 1.8075 -7 1 C-4.46578263 -0.26710868 -2.80561762 -0.28056176 0 0 Z " fill="#040404" transform="translate(544,777)"/>
<path d="M0 0 C3 0 3 0 4.578125 1.5390625 C5.12984375 2.22742188 5.6815625 2.91578125 6.25 3.625 C8.55959196 6.39261231 10.83871614 8.83757046 13.625 11.125 C16.88599594 13.82654742 19.49072889 16.57826666 22 20 C22 20.99 22 21.98 22 23 C21.34 23 20.68 23 20 23 C18.81311994 21.6206529 17.6289022 20.23715997 16.51171875 18.80078125 C13.68887082 15.43816394 10.46699152 12.45472021 7.32421875 9.39453125 C6.45410156 8.54246094 5.58398438 7.69039062 4.6875 6.8125 C3.80449219 5.95269531 2.92148437 5.09289062 2.01171875 4.20703125 C0 2 0 2 0 0 Z " fill="#161616" transform="translate(433,578)"/>
<path d="M0 0 C3.3 0 6.6 0 10 0 C10 2.31 10 4.62 10 7 C8.52093108 7.02689216 7.04172517 7.04634621 5.5625 7.0625 C4.32693359 7.07990234 4.32693359 7.07990234 3.06640625 7.09765625 C1 7 1 7 0 6 C-0.04080783 4.00041636 -0.04254356 1.99954746 0 0 Z " fill="#181818" transform="translate(532,371)"/>
<path d="M0 0 C-1.41920753 3.24095065 -3.13308248 5.35835505 -5.66015625 7.8203125 C-6.37107422 8.52027344 -7.08199219 9.22023438 -7.81445312 9.94140625 C-8.55630859 10.66199219 -9.29816406 11.38257813 -10.0625 12.125 C-11.53473193 13.56287561 -13.00489156 15.00287708 -14.47265625 16.4453125 C-15.45117554 17.39688232 -15.45117554 17.39688232 -16.44946289 18.36767578 C-18.08886 19.93459167 -18.08886 19.93459167 -19 22 C-19.99 22 -20.98 22 -22 22 C-22 19 -22 19 -20.42578125 17.38671875 C-19.72839844 16.82597656 -19.03101563 16.26523437 -18.3125 15.6875 C-14.76347205 12.72375034 -11.95624061 9.56264894 -9 6 C-2.71167048 0 -2.71167048 0 0 0 Z " fill="#171717" transform="translate(455,480)"/>
<path d="M0 0 C3.125 0.375 3.125 0.375 6 1 C6 3.31 6 5.62 6 8 C3.125 8.625 3.125 8.625 0 9 C-2 7 -2 7 -2.25 4.5 C-2 2 -2 2 0 0 Z " fill="#020202" transform="translate(403,535)"/>
<path d="M0 0 C3.3 0 6.6 0 10 0 C10 1.98 10 3.96 10 6 C6.7 6 3.4 6 0 6 C0 4.02 0 2.04 0 0 Z " fill="#1A1A1A" transform="translate(532,361)"/>
<path d="M0 0 C3.3 0 6.6 0 10 0 C10 1.98 10 3.96 10 6 C6.7 6 3.4 6 0 6 C0 4.02 0 2.04 0 0 Z " fill="#1A1A1A" transform="translate(532,327)"/>
<path d="M0 0 C1 1 1 1 1.0625 3.5625 C1.041875 4.366875 1.02125 5.17125 1 6 C0.34 6 -0.32 6 -1 6 C-1.33 6.99 -1.66 7.98 -2 9 C-3.32 8.67 -4.64 8.34 -6 8 C-6.33 5.69 -6.66 3.38 -7 1 C-4.51588385 -0.24205807 -2.74800896 -0.14092354 0 0 Z " fill="#040404" transform="translate(544,816)"/>
<path d="M0 0 C0.33 0.66 0.66 1.32 1 2 C3.52733235 2.65555119 3.52733235 2.65555119 6 3 C6.33 4.65 6.66 6.3 7 8 C-0.42857143 9.28571429 -0.42857143 9.28571429 -4 8 C-2.87548273 5.0280615 -1.77706209 2.66559313 0 0 Z " fill="#1E1E1E" transform="translate(545,759)"/>
<path d="M0 0 C3 1 3 1 4.1875 2.875 C5 5 5 5 5 8 C3.35 8.66 1.7 9.32 0 10 C-1.5625 8.3125 -1.5625 8.3125 -3 6 C-2.8125 3.3125 -2.8125 3.3125 -2 1 C-1.34 0.67 -0.68 0.34 0 0 Z " fill="#090909" transform="translate(695,535)"/>
<path d="M0 0 C0 3.3 0 6.6 0 10 C-3.3 10 -6.6 10 -10 10 C-1.50943396 0 -1.50943396 0 0 0 Z " fill="#FAFAFA" transform="translate(377,367)"/>
<path d="M0 0 C3.3 0 6.6 0 10 0 C6.83047153 3.26008643 3.60062011 6.22237877 0 9 C0 6.03 0 3.06 0 0 Z " fill="#F2F2F2" transform="translate(456,471)"/>
<path d="M0 0 C0.66 0 1.32 0 2 0 C2 1.65 2 3.3 2 5 C-0.7798816 6.3899408 -2.9186326 6.18488204 -6 6 C-8.375 5 -8.375 5 -10 4 C-10 3.01 -10 2.02 -10 1 C-6.7 1.33 -3.4 1.66 0 2 C0 1.34 0 0.68 0 0 Z " fill="#060606" transform="translate(408,547)"/>
<path d="M0 0 C2.4375 0.1875 2.4375 0.1875 3.4375 1.1875 C3.47813832 2.85367115 3.480221 4.52138095 3.4375 6.1875 C1.1275 6.1875 -1.1825 6.1875 -3.5625 6.1875 C-4.1875 4.3125 -4.1875 4.3125 -4.5625 2.1875 C-2.5625 0.1875 -2.5625 0.1875 0 0 Z " fill="#171717" transform="translate(364.5625,520.8125)"/>
<path d="M0 0 C0.66 0 1.32 0 2 0 C2 3.96 2 7.92 2 12 C0.35 11.67 -1.3 11.34 -3 11 C-2.69078116 9.54096742 -2.37751201 8.08279278 -2.0625 6.625 C-1.88847656 5.81289063 -1.71445312 5.00078125 -1.53515625 4.1640625 C-1 2 -1 2 0 0 Z " fill="#F3F3F3" transform="translate(700,379)"/>
<path d="M0 0 C2.375 0.25 2.375 0.25 5 1 C5.66 2.32 6.32 3.64 7 5 C4.03 5 1.06 5 -2 5 C-1.34 3.35 -0.68 1.7 0 0 Z " fill="#020202" transform="translate(540,255)"/>
<path d="M0 0 C0 3 0 3 -1.5 4.6875 C-1.995 5.120625 -2.49 5.55375 -3 6 C-2.34 6.66 -1.68 7.32 -1 8 C-5.62 8 -10.24 8 -15 8 C-15 7.67 -15 7.34 -15 7 C-12.36 7 -9.72 7 -7 7 C-7 6.34 -7 5.68 -7 5 C-5.46875 3.7109375 -5.46875 3.7109375 -3.5 2.375 C-2.8503125 1.92898438 -2.200625 1.48296875 -1.53125 1.0234375 C-0.77328125 0.51683594 -0.77328125 0.51683594 0 0 Z " fill="#373737" transform="translate(471,463)"/>
<path d="M0 0 C0.99 0 1.98 0 3 0 C3 2.97 3 5.94 3 9 C1.68 8.67 0.36 8.34 -1 8 C-1.125 2.25 -1.125 2.25 0 0 Z " fill="#040404" transform="translate(539,342)"/>
<path d="M0 0 C1.98 0 3.96 0 6 0 C6 1.65 6 3.3 6 5 C3.36 4.67 0.72 4.34 -2 4 C-1.34 3.67 -0.68 3.34 0 3 C0 2.01 0 1.02 0 0 Z " fill="#202020" transform="translate(371,530)"/>
<path d="M0 0 C0.99 0 1.98 0 3 0 C3.33 1.98 3.66 3.96 4 6 C2.68 6.33 1.36 6.66 0 7 C0 4.69 0 2.38 0 0 Z " fill="#070707" transform="translate(543,232)"/>
<path d="M0 0 C4.95 0.99 4.95 0.99 10 2 C9.01 2.33 8.02 2.66 7 3 C7 3.66 7 4.32 7 5 C5.1875 4.75 5.1875 4.75 3 4 C2.01 2.68 1.02 1.36 0 0 Z " fill="#1E1E1E" transform="translate(617,471)"/>
<path d="M0 0 C1.8125 1.375 1.8125 1.375 2.5625 3.5 C2.68625 4.428125 2.68625 4.428125 2.8125 5.375 C1.9771875 4.941875 1.9771875 4.941875 1.125 4.5 C-1.27244645 3.3336747 -3.70346939 2.3410119 -6.1875 1.375 C-3.79410847 -0.16360884 -2.80166935 -0.80047696 0 0 Z " fill="#1F1F1F" transform="translate(582.1875,432.625)"/>
<path d="M0 0 C1.98 0 3.96 0 6 0 C4.35830472 2.02054804 2.69088222 4.02043058 1 6 C0.67 6 0.34 6 0 6 C0 4.02 0 2.04 0 0 Z " fill="#FDFDFD" transform="translate(456,471)"/>
<path d="M0 0 C0 0.66 0 1.32 0 2 C-3.3 2 -6.6 2 -10 2 C-10 1.34 -10 0.68 -10 0 C-6.30458414 -0.95024979 -3.69541586 -0.95024979 0 0 Z " fill="#171717" transform="translate(542,385)"/>
<path d="M0 0 C1.32 0 2.64 0 4 0 C4 2.97 4 5.94 4 9 C2.00902154 6.01353231 1.05875074 3.40312738 0 0 Z " fill="#2C2C2C" transform="translate(700,721)"/>
<path d="M0 0 C0.66 1.32 1.32 2.64 2 4 C1.38125 4.28875 0.7625 4.5775 0.125 4.875 C-2.13325765 5.93720042 -2.13325765 5.93720042 -4 8 C-4.33 7.01 -4.66 6.02 -5 5 C-3.35 3.35 -1.7 1.7 0 0 Z " fill="#1D1D1D" transform="translate(609,615)"/>
<path d="M0 0 C2.375 0.6875 2.375 0.6875 5 2 C6.3125 4.625 6.3125 4.625 7 7 C6.01 7.495 6.01 7.495 5 8 C4.16382818 6.8562364 3.33113541 5.70992861 2.5 4.5625 C2.0359375 3.92441406 1.571875 3.28632813 1.09375 2.62890625 C0 1 0 1 0 0 Z " fill="#202020" transform="translate(610,463)"/>
<path d="M0 0 C0.99 1.32 1.98 2.64 3 4 C2.34 4.66 1.68 5.32 1 6 C-1.125 5.625 -1.125 5.625 -3 5 C-2.01 3.35 -1.02 1.7 0 0 Z " fill="#E8E8E8" transform="translate(646,576)"/>
<path d="M0 0 C1.98 0 3.96 0 6 0 C6.33 1.65 6.66 3.3 7 5 C4.69 4.01 2.38 3.02 0 2 C0 1.34 0 0.68 0 0 Z " fill="#242424" transform="translate(351,524)"/>
</svg>
